<svg width="131" height="131" viewBox="0 0 131 131" fill="none" xmlns="http://www.w3.org/2000/svg">
<circle cx="65.5" cy="65.5" r="65.5" fill="black"/>
<path d="M12.9268 80V76.2891C13.8057 76.2402 14.4648 76.1833 14.9043 76.1182C15.36 76.0368 15.7018 75.8659 15.9297 75.6055C16.1576 75.3288 16.3936 74.873 16.6377 74.2383C16.7516 73.9779 16.9714 73.4245 17.2969 72.5781C17.6387 71.7155 18.0537 70.6576 18.542 69.4043C19.0303 68.151 19.5511 66.8001 20.1045 65.3516C20.6742 63.903 21.2357 62.4544 21.7891 61.0059C22.3587 59.5573 22.8877 58.2064 23.376 56.9531C23.8643 55.6999 24.2793 54.6419 24.6211 53.7793C24.9629 52.9004 25.1826 52.3226 25.2803 52.0459L26.3545 48.2129H34.5332C34.5332 48.2129 34.6797 48.6198 34.9727 49.4336C35.2819 50.2311 35.6807 51.2972 36.1689 52.6318C36.6735 53.9665 37.2269 55.4395 37.8291 57.0508C38.4476 58.6621 39.0661 60.2979 39.6846 61.958C40.3031 63.6019 40.8727 65.14 41.3936 66.5723C41.9307 68.0046 42.3783 69.209 42.7363 70.1855C43.1107 71.1458 43.3385 71.7318 43.4199 71.9434C43.7943 72.9525 44.0872 73.75 44.2988 74.3359C44.5267 74.9056 44.7708 75.3369 45.0312 75.6299C45.3079 75.9066 45.6742 76.0938 46.1299 76.1914C46.5856 76.2728 47.2367 76.3135 48.083 76.3135V80C47.1553 80 46.2357 79.9919 45.3242 79.9756C44.429 79.9593 43.4199 79.9512 42.2969 79.9512C41.0273 79.9512 39.7741 79.9593 38.5371 79.9756C37.3164 79.9756 35.9492 79.9837 34.4355 80V76.5332C34.6471 76.5332 34.8994 76.5332 35.1924 76.5332C35.5016 76.5332 35.7295 76.5251 35.876 76.5088C36.641 76.4762 37.1618 76.403 37.4385 76.2891C37.7314 76.1589 37.8779 75.9554 37.8779 75.6787C37.8779 75.516 37.8454 75.3206 37.7803 75.0928C37.7152 74.8486 37.6257 74.5801 37.5117 74.2871L35.6074 68.623H23.8643C23.8154 68.7207 23.7178 68.9811 23.5713 69.4043C23.4411 69.8112 23.2783 70.2995 23.083 70.8691C22.8877 71.4225 22.6924 71.984 22.4971 72.5537C22.3018 73.1071 22.139 73.5872 22.0088 73.9941C21.8786 74.3848 21.8053 74.6208 21.7891 74.7021C21.6263 75.1742 21.5449 75.5078 21.5449 75.7031C21.5449 76.0449 21.6751 76.2728 21.9355 76.3867C22.196 76.4844 22.6273 76.5332 23.2295 76.5332C23.376 76.5495 23.6527 76.5576 24.0596 76.5576C24.4827 76.5576 24.792 76.5576 24.9873 76.5576V80C24.027 80 23.0505 79.9919 22.0576 79.9756C21.0811 79.9593 20.0557 79.9512 18.9814 79.9512C17.891 79.9512 16.8981 79.9593 16.0029 79.9756C15.124 79.9756 14.0986 79.9837 12.9268 80ZM24.9141 65.6689H34.5576L29.8213 52.0459L24.9141 65.6689ZM49.4258 80V76.2891H50.7441C51.8835 76.2891 52.5671 76.0612 52.7949 75.6055C53.0228 75.1335 53.1367 74.515 53.1367 73.75C53.1367 73.7174 53.1367 73.335 53.1367 72.6025C53.1367 71.8701 53.1367 70.9261 53.1367 69.7705C53.1367 68.5986 53.1367 67.321 53.1367 65.9375C53.1367 64.5378 53.1286 63.1462 53.1123 61.7627C53.1123 60.3792 53.1123 59.1097 53.1123 57.9541C53.1123 56.7985 53.1123 55.8789 53.1123 55.1953C53.1123 54.4954 53.1123 54.1455 53.1123 54.1455C53.1123 53.4131 52.9577 52.8597 52.6484 52.4854C52.3392 52.111 51.68 51.9157 50.6709 51.8994C50.5407 51.8994 50.3454 51.8994 50.085 51.8994C49.8245 51.8994 49.6048 51.8994 49.4258 51.8994V48.2129H62.7314C69.5348 48.2129 74.613 49.515 77.9658 52.1191C81.335 54.707 83.0195 58.6296 83.0195 63.8867C83.0195 67.7767 82.2383 70.9098 80.6758 73.2861C79.1296 75.6462 76.8753 77.3551 73.9131 78.4131C70.9671 79.471 67.3945 80 63.1953 80H49.4258ZM59.9238 75.9473H63.9521C67.7933 75.9473 70.6986 74.9951 72.668 73.0908C74.6536 71.1865 75.6465 68.1022 75.6465 63.8379C75.6465 59.8503 74.6699 56.9287 72.7168 55.0732C70.7637 53.2015 67.834 52.2656 63.9277 52.2656H59.9238V75.9473ZM87.2432 80V76.2891H89.3916C90.2054 76.2891 90.6937 76.0368 90.8564 75.5322C91.0192 75.0277 91.1006 74.4499 91.1006 73.7988V54.6338C91.1006 53.8851 91.0355 53.2422 90.9053 52.7051C90.7751 52.1517 90.2705 51.875 89.3916 51.875H87.3652V48.2373H114.611V56.8066H110.534V55.7568C110.534 54.6012 110.412 53.7874 110.168 53.3154C109.94 52.8434 109.615 52.5667 109.191 52.4854C108.768 52.3877 108.256 52.3389 107.653 52.3389H97.8877V62.0068H103.894C104.3 62.0068 104.618 61.9743 104.846 61.9092C105.09 61.8278 105.285 61.6162 105.432 61.2744C105.594 60.9326 105.716 60.3711 105.798 59.5898H107.849V67.9883H105.798C105.635 66.8327 105.415 66.141 105.139 65.9131C104.878 65.6689 104.447 65.5469 103.845 65.5469H97.8877V75.9229H107.971C108.996 75.9229 109.696 75.6868 110.07 75.2148C110.445 74.7266 110.64 73.6198 110.656 71.8945C110.656 71.7806 110.656 71.6178 110.656 71.4062C110.656 71.1947 110.656 71.0238 110.656 70.8936H114.709V80H87.2432Z" fill="white"/>
</svg>
